<?xml version="1.0" encoding="UTF-8" standalone="no"?>
<!-- Created with Inkscape (http://www.inkscape.org/) -->

<svg
   xmlns:dc="http://purl.org/dc/elements/1.1/"
   xmlns:cc="http://creativecommons.org/ns#"
   xmlns:rdf="http://www.w3.org/1999/02/22-rdf-syntax-ns#"
   xmlns:svg="http://www.w3.org/2000/svg"
   xmlns="http://www.w3.org/2000/svg"
   xmlns:sodipodi="http://sodipodi.sourceforge.net/DTD/sodipodi-0.dtd"
   xmlns:inkscape="http://www.inkscape.org/namespaces/inkscape"
   width="144mm"
   height="26mm"
   viewBox="0 0 144 26"
   version="1.1"
   id="svg8"
   inkscape:version="0.92.5 (2060ec1f9f, 2020-04-08)"
   sodipodi:docname="preview.svg">
  <defs
     id="defs2" />
  <sodipodi:namedview
     id="base"
     pagecolor="#ffffff"
     bordercolor="#666666"
     borderopacity="1.0"
     inkscape:pageopacity="0.0"
     inkscape:pageshadow="2"
     inkscape:zoom="1.4"
     inkscape:cx="401.37311"
     inkscape:cy="12.69018"
     inkscape:document-units="mm"
     inkscape:current-layer="layer1"
     showgrid="false"
     units="mm"
     height="296mm"
     inkscape:window-width="1920"
     inkscape:window-height="1023"
     inkscape:window-x="0"
     inkscape:window-y="27"
     inkscape:window-maximized="1" />
  <metadata
     id="metadata5">
    <rdf:RDF>
      <cc:Work
         rdf:about="">
        <dc:format>image/svg+xml</dc:format>
        <dc:type
           rdf:resource="http://purl.org/dc/dcmitype/StillImage" />
        <dc:title />
      </cc:Work>
    </rdf:RDF>
  </metadata>
  <g
     inkscape:label="Livello 1"
     inkscape:groupmode="layer"
     id="layer1"
     transform="translate(0,-271)">
    <g
       aria-label="racersfont"
       transform="matrix(0.80033411,0,0,0.80033411,-43.539894,109.24063)"
       style="font-style:normal;font-variant:normal;font-weight:normal;font-stretch:normal;font-size:40px;line-height:1.25;font-family:RacersFont;-inkscape-font-specification:RacersFont;letter-spacing:0px;word-spacing:0px;fill:#000000;fill-opacity:1;stroke:none"
       id="flowRoot10">
      <path
         d="m 60.365156,214.92469 0.4,-5.96 2.56,0.04 c 0.4,0.56 1.32,0.96 0.32,3.68 -0.8,2.12 -1.68,1.92 -3.28,2.24 z m -5.2,16.96 6.16,-1.52 0.68,-11.6 1.68,2.24 0.68,8.56 3.36,-1.44 -0.84,-10.16 -1.92,-1.76 c 1.08,-1.16 2.16,-1.48 2.72,-2.96 0.72,-1.84 1.04,-3.2 0.4,-5.12 -0.48,-1.44 -1.44,-2.4 -3.04,-2.8 h -7.84 z"
         style=""
         id="path66" />
      <path
         d="m 73.885146,218.04469 3.72,-0.08 -1.84,-5.6 z m -4,12.96 4.16,-25.92 h 5.28 l 4.8,25.44 -4.48,1.76 -0.68,-6.16 -2.16,-2.72 0.04,8.8 z"
         style=""
         id="path68" />
      <path
         d="m 101.40512,231.44469 c -24.759999,5.92 -18.759999,-37.28 2.68,-24.28 l -2.64,5.76 c 0,0 -10.359999,-4.52 -11.679999,7.72 -1.04,9.44 9.8,6.92 9.8,6.92 z"
         style=""
         id="path70" />
      <path
         d="m 104.9651,206.60469 2.36,24.88 14.08,1.52 0.08,-8.88 -8.4,0.32 -0.24,-2.4 3.52,-1.2 -0.72,-4.96 -4.4,0.64 -1.76,-5.36 9.28,-2.48 -0.12,-4.08 z"
         style=""
         id="path72" />
      <path
         d="m 127.96503,214.92469 0.4,-5.96 2.56,0.04 c 0.4,0.56 1.32,0.96 0.32,3.68 -0.8,2.12 -1.68,1.92 -3.28,2.24 z m -5.2,16.96 6.16,-1.52 0.68,-11.6 1.68,2.24 0.68,8.56 3.36,-1.44 -0.84,-10.16 -1.92,-1.76 c 1.08,-1.16 2.16,-1.48 2.72,-2.96 0.72,-1.84 1.04,-3.2 0.4,-5.12 -0.48,-1.44 -1.44,-2.4 -3.04,-2.8 h -7.84 z"
         style=""
         id="path74" />
      <path
         d="m 138.40501,213.76469 4.32,6.44 c 8.08,13.92 -1.76,5.56 -1.76,5.56 l -2.36,2.36 c 0,0 2.6,3.88 8.12,4.12 3.24,0.2 5.88,-3.56 4.56,-6.8 -1.88,-2.64 -6,-8.16 -6.88,-11.28 -1.04,-3.52 3.28,-2.68 6.16,-1.32 l 3.08,-5.52 c -1.68,-2.36 -10.16,-5 -14.36,-0.92 -2.2,2.16 -2.48,5.48 -0.88,7.36 z"
         style=""
         id="path76" />
      <path
         d="m 155.80497,232.68469 h 3.04 l -1.08,-13.12 10.08,0.16 0.08,-4.88 -10.8,-0.08 -0.16,-3.68 9.84,-0.08 1.68,-5.76 -14,0.4 z"
         style=""
         id="path78" />
      <path
         d="m 178.36492,215.40469 c 0,-4.56 2.24,-8.24 4.96,-8.24 2.72,0 4.96,3.68 4.96,8.24 0,4.56 -2.24,8.24 -4.96,8.24 -2.72,0 -4.96,-3.68 -4.96,-8.24 z m -8.44,2.44 c 0.44,6.6 4.92,15.96 9.64,15.96 6.76,0 10.16,-7.28 10.8,-15.92 0.8,-11.04 -4.36,-14.68 -11.04,-13.92 -6.8,0.8 -9.84,7.36 -9.4,13.88 z"
         style=""
         id="path80" />
      <path
         d="m 192.0049,229.72469 12.08,2.96 -3.28,-14.32 11.6,12.08 1.28,-24.88 -11.28,-1.36 1.6,9.76 -10.72,-10 z"
         style=""
         id="path82" />
      <path
         d="m 221.32483,230.36469 -0.04,-17.84 -4.16,0.8 -2.64,-7.76 17.28,-0.32 -2.32,4.32 -4.32,1.68 0.28,21.84 z"
         style=""
         id="path84" />
    </g>
  </g>
</svg>
